<svg xmlns="http://www.w3.org/2000/svg" xmlns:svg="http://www.w3.org/2000/svg" id="svg2" width="16" height="16" version="1.1" viewBox="0 0 16 16"><g id="g8"><path style="fill:#000;stroke-width:.237748" id="path783" d="m 8.0529525,14.60266 -5.533428,0.06384 -0.117155,-0.305305 -0.117156,-0.305304 0.06349,-6.2966204 0.06349,-6.2966201 4.281826,-0.064566 4.2818265,-0.064584 1.36947,1.3839101 1.36947,1.3839101 -0.06421,5.2187458 -0.06421,5.2187625 z m -1.95565,-1.84695 h 1.901987 v -0.475502 -0.475503 h -1.901987 -1.901988 v 0.475503 0.475502 z M 7.9992895,9.9027285 H 11.803266 V 9.4272255 8.9517225 H 7.9992895 4.1953145 v 0.475503 0.475503 z m -1.42649,-2.8529819 h 2.377485 v -0.475503 -0.475503 h -2.377485 -2.377485 v 0.475503 0.475503 z m 0.475496,-2.8529817 h 2.852983 V 3.721262 3.2457591 H 7.0482955 4.1953145 V 3.721262 4.1967649 Z"/></g></svg>