<svg xmlns="http://www.w3.org/2000/svg" xmlns:svg="http://www.w3.org/2000/svg" id="Layer_1" width="493" height="58" x="0" y="0" enable-background="new 0 0 196.6 72" version="1.1" viewBox="0 0 462.188 54.375" xml:space="preserve"><metadata id="metadata20"/><defs id="defs18"><clipPath id="clipPath8812" clipPathUnits="userSpaceOnUse"><circle id="circle8814" cx="95.669" cy="95.669" r="79.724" style="fill:#00080d;fill-opacity:1;stroke-width:1"/></clipPath></defs><path id="path1052" d="m 411.83858,10.876373 c -7.55537,0 -13.95917,5.122046 -15.94393,12.061838 -1.72495,-3.680971 -5.463,-6.259801 -9.76856,-6.259801 -5.92119,0 -10.78856,4.867369 -10.78856,10.78855 0,5.921172 4.86737,10.790763 10.78856,10.790763 4.30556,0 8.04361,-2.580407 9.76856,-6.262024 1.98476,6.94032 8.38856,12.064068 15.94393,12.064068 7.49951,0 13.87065,-5.046471 15.90617,-11.908511 1.75682,3.598038 5.4486,6.106467 9.69302,6.106467 5.92118,0 10.79076,-4.869591 10.79076,-10.790763 0,-5.921181 -4.86958,-10.78855 -10.79076,-10.78855 -4.24442,0 -7.9362,2.506858 -9.69302,6.10425 -2.03552,-6.861503 -8.40666,-11.906287 -15.90617,-11.906287 z m 0,6.333131 c 5.70346,0 10.25968,4.554019 10.25968,10.257456 0,5.703427 -4.55622,10.259672 -10.25968,10.259672 -5.70341,0 -10.25743,-4.556245 -10.25743,-10.259672 0,-5.703437 4.55402,-10.257454 10.25743,-10.257456 z m -25.71249,5.802039 c 2.4988,0 4.45763,1.9566 4.45763,4.455417 0,2.498807 -1.95883,4.457631 -4.45763,4.457631 -2.49882,0 -4.45544,-1.958824 -4.45544,-4.457631 0,-2.498817 1.95662,-4.455417 4.45544,-4.455417 z m 51.31168,0 c 2.49883,0 4.45764,1.9566 4.45764,4.455417 0,2.498807 -1.95883,4.457631 -4.45764,4.457631 -2.49879,0 -4.45541,-1.958824 -4.45541,-4.457631 0,-2.498817 1.95662,-4.455417 4.45541,-4.455417 z" style="color:#000;font-style:normal;font-variant:normal;font-weight:400;font-stretch:normal;font-size:medium;line-height:normal;font-family:sans-serif;text-indent:0;text-align:start;text-decoration:none;text-decoration-line:none;text-decoration-style:solid;text-decoration-color:#000;letter-spacing:normal;word-spacing:normal;text-transform:none;writing-mode:lr-tb;direction:ltr;baseline-shift:baseline;text-anchor:start;white-space:normal;clip-rule:nonzero;display:inline;overflow:visible;visibility:visible;opacity:1;isolation:auto;mix-blend-mode:normal;color-interpolation:sRGB;color-interpolation-filters:linearRGB;solid-color:#000;solid-opacity:1;fill:#0082c9;fill-opacity:1;fill-rule:nonzero;stroke:none;stroke-width:3.56218;stroke-linecap:butt;stroke-linejoin:miter;stroke-miterlimit:10;stroke-dasharray:none;stroke-dashoffset:0;stroke-opacity:1;color-rendering:auto;image-rendering:auto;shape-rendering:auto;text-rendering:auto;enable-background:accumulate"/></svg>