<svg xmlns="http://www.w3.org/2000/svg" xmlns:svg="http://www.w3.org/2000/svg" id="svg3144" width="32" height="32" version="1.1"><metadata id="metadata3149"/><g id="layer1"><path style="fill:none;stroke:#333;stroke-width:2.81128564999999986;stroke-miterlimit:4;stroke-opacity:1;stroke-dasharray:none" id="path4025" d="M 10,6 A 11,11 0 1 1 -12,6 11,11 0 1 1 10,6 z" transform="matrix(1.2727273,0,0,1.2727273,17.272727,8.363636)"/><g id="g4637" transform="matrix(0.92719971,0,0,0.92719971,1.1648051,1.7655471)"><g id="g4660" style="fill:#333;fill-opacity:1"><path style="fill:#333;fill-opacity:1" id="path4605" d="m 18,23 c 0,1.104569 -0.895431,2 -2,2 -1.104569,0 -2,-0.895431 -2,-2 0,-1.104569 0.895431,-2 2,-2 1.104569,0 2,0.895431 2,2 z" transform="matrix(1.1176471,0,0,1.1176471,-1.8823536,-1.9705883)"/><path style="fill:#333;fill-opacity:1" id="path4605-7" d="m 18.240641,12 c -0.357431,3.993456 -1.000776,7.264706 -2.235294,7.264706 -1.234518,0 -1.833524,-3.2762 -2.235294,-7.264706 C 13.243883,6.7765275 13.896254,4.6647937 16.005347,4.735294 18.522001,4.819419 18.614239,7.8259215 18.240641,12 z"/></g></g></g></svg>